<?xml version="1.0" encoding="UTF-8" standalone="no"?>
<!-- Created with Inkscape (http://www.inkscape.org/) -->

<svg
   width="512"
   height="150"
   viewBox="0 0 135.46666 39.687501"
   version="1.1"
   id="svg1"
   xml:space="preserve"
   xmlns="http://www.w3.org/2000/svg"
   xmlns:svg="http://www.w3.org/2000/svg"><defs
     id="defs1" /><g
     id="layer1"
     transform="translate(0,-47.624999)"><path
       id="rect11"
       style="fill:#ffd43b;stroke-linecap:round"
       d="m 30.290739,75.039474 h 1.882126 c 2.072943,0 3.741774,1.668831 3.741774,3.741774 v 2.165545 c 0,2.072942 -1.668831,3.741773 -3.741774,3.741773 h -1.882126 c -2.072943,0 -3.741774,-1.668831 -3.741774,-3.741773 v -2.165545 c 0,-2.072943 1.668831,-3.741774 3.741774,-3.741774 z M 8.5204082,75.347748 h 1.8821268 c 2.072942,0 3.741773,1.668831 3.741773,3.741773 v 2.165545 c 0,2.072943 -1.668831,3.741774 -3.741773,3.741774 H 8.5204082 c -2.0729424,0 -3.7417732,-1.668831 -3.7417732,-3.741774 v -2.165545 c 0,-2.072942 1.6688308,-3.741773 3.7417732,-3.741773 z M 8.2248831,50.172058 H 10.10701 c 2.072942,0 3.741773,1.668831 3.741773,3.741773 v 2.165545 c 0,2.072943 -1.668831,3.741774 -3.741773,3.741774 H 8.2248831 c -2.0729423,0 -3.7417731,-1.668831 -3.7417731,-3.741774 v -2.165545 c 0,-2.072942 1.6688308,-3.741773 3.7417731,-3.741773 z" /><path
       id="text1"
       style="font-weight:900;font-size:31.5224px;font-family:Montserrat;-inkscape-font-specification:'Montserrat, Heavy';text-align:center;letter-spacing:-0.3949px;text-anchor:middle;fill:#3776ab;stroke-width:1.5;stroke-linecap:round"
       d="m 46.888443,81.489873 q -1.418508,0 -2.900061,-0.441314 -1.45003,-0.409791 -2.332658,-1.103284 l 2.36418,-4.885972 q 0.535881,0.409791 1.197852,0.661971 0.693492,0.252179 1.32394,0.252179 0.945672,0 1.450031,-0.409791 0.504358,-0.378269 0.819582,-1.166329 l 0.725015,-1.828299 0.504359,-0.693493 5.51642,-14.05899 h 6.745793 l -7.09254,17.589499 q -0.945672,2.36418 -2.206568,3.68812 -1.229373,1.323941 -2.773971,1.859822 -1.513075,0.535881 -3.341374,0.535881 z m 1.670687,-5.64251 -7.502331,-18.030812 h 7.313197 l 5.169673,13.428542 z m 21.63923,-0.472836 q -2.048956,0 -3.719643,-0.819582 -1.639165,-0.851105 -2.584837,-2.616359 -0.945672,-1.796777 -0.945672,-4.602271 v -9.519764 h 7.124063 v 8.290391 q 0,1.828299 0.598925,2.553314 0.598926,0.725015 1.639165,0.725015 0.630448,0 1.166329,-0.315224 0.567403,-0.346746 0.91415,-1.103284 0.346746,-0.78806 0.346746,-2.048956 v -8.101256 h 7.124062 v 17.242752 h -6.777316 v -4.980539 l 1.355464,1.355463 q -0.91415,2.017434 -2.61636,2.994628 -1.670687,0.945672 -3.625076,0.945672 z M 84.618988,75.059303 V 57.816551 h 7.124062 v 17.242752 z m 3.562031,-18.629738 q -1.954389,0 -3.120717,-1.040239 -1.166329,-1.040239 -1.166329,-2.584837 0,-1.544598 1.166329,-2.584837 1.166328,-1.040239 3.120717,-1.040239 1.954389,0 3.120718,0.977194 1.166329,0.977195 1.166329,2.521792 0,1.639165 -1.166329,2.710927 -1.166329,1.040239 -3.120718,1.040239 z m 12.277111,15.792722 0.15761,-8.384958 5.95774,-6.020778 h 8.41648 l -7.8806,8.258868 -3.56203,2.868539 z m -5.957733,2.837016 v -23.38962 h 7.124063 v 23.38962 z m 12.451343,0 -4.72836,-5.989256 4.38162,-5.39033 8.95236,11.379586 z m 9.25097,0 V 57.816551 h 7.12406 v 17.242752 z m 3.56203,-18.629738 q -1.95439,0 -3.12072,-1.040239 -1.16633,-1.040239 -1.16633,-2.584837 0,-1.544598 1.16633,-2.584837 1.16633,-1.040239 3.12072,-1.040239 1.95439,0 3.12072,0.977194 1.16633,0.977195 1.16633,2.521792 0,1.639165 -1.16633,2.710927 -1.16633,1.040239 -3.12072,1.040239 z m 14.64129,18.944962 q -3.56203,0 -5.54794,-1.702209 -1.98591,-1.733732 -1.98591,-5.295763 v -14.43726 h 7.12406 V 68.31351 q 0,0.78806 0.40979,1.229373 0.44132,0.441314 1.07176,0.441314 0.91415,0 1.60765,-0.472836 l 1.7022,4.949017 q -0.81958,0.472836 -1.98591,0.693492 -1.1348,0.220657 -2.3957,0.220657 z M 124.508,63.017747 v -5.201196 h 13.01875 v 5.201196 z M 16.655334,81.577009 v -9.337002 h 8.323649 v 9.337002 z m 0.02387,-8.41302 V 48.133236 h 11.91012 q 3.463478,0 5.972731,1.144263 2.544596,1.144263 3.922919,3.289756 1.378321,2.109735 1.378321,5.006151 0,2.896416 -1.378321,5.00615 -1.378323,2.109736 -3.922919,3.289757 -2.509253,1.144263 -5.972731,1.144263 h -7.28037 l 3.710869,-3.61158 v 9.761993 z M 25.019819,64.33171 21.30895,60.50558 h 6.750247 q 1.731738,0 2.544594,-0.786681 0.8482,-0.78668 0.8482,-2.145493 0,-1.358812 -0.8482,-2.145493 -0.812856,-0.786681 -2.544594,-0.786681 H 21.30895 l 3.710869,-3.82613 z M 8.7436557,60.895795 h 1.9540333 c 2.152139,0 3.884727,1.60742 3.884727,3.60408 v 2.085855 c 0,1.996661 -1.732588,3.60408 -3.884727,3.60408 H 8.7436557 c -2.1521389,0 -3.8847272,-1.607419 -3.8847272,-3.60408 v -2.085855 c 0,-1.99666 1.7325883,-3.60408 3.8847272,-3.60408 z"
       transform="scale(0.963201,1.0382049)" /></g></svg>
